<svg id="svg" version="1.1" xmlns="http://www.w3.org/2000/svg" xmlns:xlink="http://www.w3.org/1999/xlink" width="400" height="71.77700348432056" viewBox="0, 0, 400,71.77700348432056"><g id="svgg"><path id="path0" d="M35.181 2.547 C 35.219 2.573,35.381 2.695,35.542 2.818 C 35.791 3.009,35.833 3.002,35.833 2.770 C 35.833 2.604,35.694 2.500,35.472 2.500 C 35.274 2.500,35.142 2.521,35.181 2.547 M30.391 4.091 C 30.236 4.495,30.417 4.534,30.749 4.168 C 31.025 3.863,31.027 3.833,30.771 3.833 C 30.616 3.833,30.445 3.949,30.391 4.091 M36.166 4.249 C 36.615 4.727,36.692 4.717,36.557 4.201 C 36.497 3.972,36.332 3.833,36.118 3.833 C 35.785 3.833,35.786 3.845,36.166 4.249 M29.875 5.277 C 29.622 5.379,29.595 6.000,29.843 6.000 C 29.940 6.000,29.973 5.925,29.917 5.833 C 29.860 5.742,29.931 5.667,30.073 5.667 C 30.216 5.667,30.333 5.554,30.333 5.417 C 30.333 5.160,30.238 5.131,29.875 5.277 M36.667 5.215 C 36.667 5.241,36.817 5.557,37.000 5.917 C 37.306 6.517,37.333 6.535,37.333 6.130 C 37.333 5.888,37.215 5.573,37.071 5.429 C 36.828 5.185,36.667 5.100,36.667 5.215 M29.058 6.924 C 29.003 7.065,29.002 7.225,29.056 7.278 C 29.224 7.446,29.667 7.188,29.667 6.922 C 29.667 6.589,29.185 6.591,29.058 6.924 M37.333 6.823 C 37.333 6.910,37.414 7.030,37.512 7.091 C 37.610 7.151,37.755 7.362,37.834 7.559 L 37.979 7.917 37.989 7.555 C 38.005 7.030,37.831 6.667,37.566 6.667 C 37.438 6.667,37.333 6.737,37.333 6.823 M28.386 8.458 C 28.329 8.619,28.245 8.825,28.200 8.917 C 28.155 9.008,28.213 8.995,28.329 8.888 C 28.445 8.781,28.644 8.732,28.770 8.781 C 28.921 8.839,29.000 8.748,29.000 8.518 C 29.000 8.090,28.533 8.045,28.386 8.458 M38.000 8.500 C 38.000 8.685,38.111 8.833,38.250 8.833 C 38.387 8.833,38.500 8.921,38.500 9.028 C 38.500 9.135,38.541 9.181,38.591 9.131 C 38.642 9.080,38.634 8.843,38.573 8.603 C 38.445 8.093,38.000 8.013,38.000 8.500 M27.791 10.074 C 27.631 10.191,27.506 10.428,27.513 10.602 C 27.523 10.835,27.549 10.852,27.616 10.667 C 27.665 10.529,27.822 10.324,27.965 10.210 C 28.318 9.930,28.158 9.805,27.791 10.074 M38.667 9.958 C 38.667 10.029,38.817 10.180,39.000 10.295 C 39.183 10.409,39.333 10.445,39.333 10.375 C 39.333 10.304,39.183 10.153,39.000 10.039 C 38.817 9.924,38.667 9.888,38.667 9.958 M26.846 11.875 C 26.855 12.126,26.891 12.167,26.955 12.000 C 27.007 11.862,27.132 11.695,27.233 11.628 C 27.346 11.552,27.305 11.504,27.125 11.503 C 26.929 11.501,26.838 11.623,26.846 11.875 M26.169 13.208 C 26.171 13.485,26.210 13.523,26.316 13.355 C 26.396 13.230,26.563 13.062,26.689 12.983 C 26.857 12.876,26.818 12.838,26.542 12.836 C 26.262 12.834,26.167 12.929,26.169 13.208 M40.296 13.093 C 40.500 13.235,40.667 13.473,40.667 13.621 C 40.667 13.768,40.713 13.842,40.770 13.786 C 41.011 13.545,40.655 12.833,40.293 12.833 L 39.926 12.833 40.296 13.093 M316.778 12.944 C 316.717 13.006,316.667 23.018,316.667 35.194 L 316.667 57.333 321.917 57.333 L 327.167 57.333 327.167 51.083 L 327.167 44.833 329.583 44.833 L 332.000 44.833 332.000 45.497 C 332.000 46.066,332.060 46.175,332.417 46.265 C 332.817 46.365,332.833 46.421,332.833 47.685 C 332.833 48.889,332.861 49.000,333.167 49.000 C 333.473 49.000,333.500 49.111,333.500 50.349 C 333.500 51.558,333.535 51.707,333.833 51.785 C 334.120 51.860,334.167 52.012,334.167 52.868 C 334.167 53.724,334.214 53.877,334.500 53.952 C 334.796 54.029,334.833 54.179,334.833 55.285 C 334.833 56.391,334.871 56.541,335.167 56.618 C 335.351 56.667,335.500 56.846,335.500 57.019 C 335.500 57.320,335.719 57.333,340.750 57.333 L 346.000 57.333 346.000 56.000 C 346.000 54.778,345.972 54.667,345.667 54.667 C 345.365 54.667,345.333 54.556,345.333 53.514 C 345.333 52.222,345.235 51.833,344.907 51.833 C 344.752 51.833,344.668 51.541,344.633 50.875 C 344.589 50.026,344.541 49.911,344.208 49.863 C 343.864 49.814,343.833 49.723,343.833 48.738 C 343.833 47.778,343.799 47.667,343.500 47.667 C 343.195 47.667,343.167 47.556,343.167 46.345 C 343.167 45.169,343.130 45.011,342.833 44.917 C 342.553 44.828,342.500 44.664,342.500 43.890 C 342.500 43.109,342.449 42.956,342.167 42.882 C 341.914 42.816,341.833 42.654,341.833 42.215 C 341.833 41.776,341.753 41.614,341.500 41.548 C 341.308 41.498,341.167 41.321,341.167 41.132 C 341.167 40.948,341.026 40.765,340.849 40.719 C 340.674 40.673,340.493 40.493,340.448 40.318 C 340.399 40.133,340.219 40.000,340.016 40.000 C 339.526 40.000,339.497 38.743,339.982 38.589 C 340.337 38.476,340.494 38.035,340.498 37.144 C 340.499 36.680,340.578 36.519,340.833 36.452 C 341.120 36.377,341.167 36.224,341.167 35.368 C 341.167 34.512,341.214 34.360,341.500 34.285 C 341.796 34.208,341.833 34.058,341.833 32.952 C 341.833 31.846,341.871 31.696,342.167 31.618 C 342.465 31.540,342.500 31.391,342.500 30.182 C 342.500 28.944,342.527 28.833,342.833 28.833 C 343.141 28.833,343.167 28.722,343.167 27.417 C 343.167 26.111,343.193 26.000,343.500 26.000 C 343.796 26.000,343.833 25.889,343.833 25.000 L 343.833 24.000 338.667 24.000 C 333.718 24.000,333.500 24.013,333.500 24.314 C 333.500 24.488,333.351 24.667,333.167 24.715 C 332.868 24.793,332.833 24.942,332.833 26.151 C 332.833 27.361,332.801 27.500,332.519 27.500 C 332.110 27.500,332.005 27.932,332.002 29.625 C 332.000 30.888,331.973 31.000,331.667 31.000 C 331.359 31.000,331.333 31.111,331.333 32.417 C 331.333 33.722,331.307 33.833,331.000 33.833 C 330.722 33.833,330.667 33.944,330.667 34.500 C 330.667 34.999,330.600 35.167,330.401 35.167 C 330.255 35.167,330.096 35.317,330.048 35.500 C 329.970 35.800,329.821 35.833,328.564 35.833 L 327.167 35.833 327.167 24.333 L 327.167 12.833 322.028 12.833 C 319.201 12.833,316.839 12.883,316.778 12.944 M40.680 14.130 C 40.673 14.248,40.785 14.389,40.931 14.445 C 41.076 14.501,41.259 14.705,41.337 14.898 C 41.467 15.220,41.480 15.211,41.489 14.792 C 41.497 14.447,41.420 14.333,41.181 14.333 C 41.005 14.333,40.823 14.240,40.777 14.125 C 40.711 13.962,40.690 13.963,40.680 14.130 M92.333 36.167 L 92.333 57.333 97.917 57.333 L 103.500 57.333 103.500 50.083 L 103.500 42.833 106.229 42.833 L 108.957 42.833 109.064 43.500 C 109.147 44.018,109.244 44.167,109.502 44.167 C 109.796 44.167,109.833 44.280,109.833 45.167 C 109.833 46.056,109.870 46.167,110.167 46.167 C 110.464 46.167,110.500 46.278,110.500 47.182 C 110.500 48.058,110.546 48.210,110.833 48.285 C 111.118 48.359,111.167 48.512,111.167 49.333 C 111.167 50.154,111.215 50.307,111.500 50.382 C 111.784 50.456,111.833 50.609,111.833 51.417 C 111.833 52.224,111.883 52.377,112.167 52.452 C 112.448 52.525,112.500 52.679,112.500 53.430 C 112.500 54.130,112.567 54.357,112.811 54.488 C 113.038 54.610,113.153 54.927,113.236 55.661 C 113.332 56.508,113.401 56.667,113.675 56.667 C 113.889 56.667,114.000 56.781,114.000 57.000 C 114.000 57.493,124.910 57.528,125.039 57.035 C 125.151 56.607,124.887 56.000,124.589 56.000 C 124.402 56.000,124.333 55.821,124.333 55.333 C 124.333 54.778,124.278 54.667,124.000 54.667 C 123.701 54.667,123.667 54.556,123.667 53.583 C 123.667 52.611,123.632 52.500,123.333 52.500 C 123.037 52.500,123.000 52.389,123.000 51.500 C 123.000 50.611,122.963 50.500,122.667 50.500 C 122.374 50.500,122.333 50.389,122.333 49.585 C 122.333 48.850,122.268 48.628,122.000 48.461 C 121.804 48.339,121.667 48.073,121.667 47.814 C 121.667 46.899,121.468 46.333,121.146 46.333 C 120.887 46.333,120.833 46.206,120.833 45.583 C 120.833 44.944,120.784 44.833,120.500 44.833 C 120.222 44.833,120.167 44.722,120.167 44.167 C 120.167 43.611,120.111 43.500,119.833 43.500 C 119.556 43.500,119.500 43.389,119.500 42.833 C 119.500 42.278,119.444 42.167,119.167 42.167 C 118.939 42.167,118.833 42.056,118.833 41.818 C 118.833 41.609,118.699 41.434,118.500 41.382 C 117.843 41.210,118.096 40.667,118.833 40.667 C 119.389 40.667,119.500 40.611,119.500 40.333 C 119.500 40.111,119.611 40.000,119.833 40.000 C 120.056 40.000,120.167 39.889,120.167 39.667 C 120.167 39.444,120.278 39.333,120.500 39.333 C 120.718 39.333,120.833 39.222,120.833 39.011 C 120.833 38.834,120.983 38.642,121.166 38.583 C 121.397 38.510,121.532 38.275,121.604 37.822 C 121.683 37.330,121.787 37.167,122.021 37.167 C 122.291 37.167,122.333 37.033,122.333 36.186 C 122.333 35.346,122.381 35.193,122.667 35.118 C 122.993 35.033,123.000 34.891,123.000 28.583 C 123.000 22.276,122.993 22.134,122.667 22.048 C 122.392 21.976,122.333 21.821,122.333 21.161 C 122.333 20.221,122.212 19.833,121.918 19.833 C 121.801 19.833,121.666 19.683,121.618 19.500 C 121.566 19.301,121.391 19.167,121.182 19.167 C 120.944 19.167,120.833 19.061,120.833 18.833 C 120.833 18.611,120.722 18.500,120.500 18.500 C 120.273 18.500,120.167 18.389,120.167 18.151 C 120.167 17.942,120.033 17.767,119.833 17.715 C 119.649 17.667,119.500 17.488,119.500 17.314 C 119.500 17.111,119.382 17.000,119.167 17.000 C 118.944 17.000,118.833 16.889,118.833 16.667 C 118.833 16.391,118.722 16.333,118.186 16.333 C 117.679 16.333,117.520 16.261,117.452 16.000 C 117.377 15.713,117.224 15.667,116.349 15.667 C 115.444 15.667,115.333 15.630,115.333 15.333 C 115.333 15.003,115.222 15.000,103.833 15.000 L 92.333 15.000 92.333 36.167 M216.333 36.167 L 216.333 57.333 221.917 57.333 L 227.500 57.333 227.500 50.083 L 227.500 42.833 230.333 42.833 L 233.167 42.833 233.167 43.500 C 233.167 44.056,233.222 44.167,233.500 44.167 C 233.796 44.167,233.833 44.278,233.833 45.167 C 233.833 46.056,233.870 46.167,234.167 46.167 C 234.464 46.167,234.500 46.278,234.500 47.182 C 234.500 48.058,234.546 48.210,234.833 48.285 C 235.114 48.359,235.167 48.512,235.167 49.264 C 235.167 49.984,235.230 50.189,235.500 50.333 C 235.741 50.462,235.834 50.684,235.836 51.131 C 235.839 52.073,236.001 52.500,236.353 52.500 C 236.625 52.500,236.667 52.632,236.667 53.489 C 236.667 54.331,236.716 54.493,237.000 54.583 C 237.284 54.673,237.333 54.836,237.333 55.678 C 237.333 56.556,237.371 56.667,237.667 56.667 C 237.889 56.667,238.000 56.778,238.000 57.000 C 238.000 57.451,248.934 57.533,249.107 57.083 C 249.252 56.704,249.025 56.000,248.757 56.000 C 248.604 56.000,248.502 55.780,248.468 55.375 C 248.427 54.873,248.343 54.740,248.042 54.697 C 247.697 54.648,247.667 54.556,247.667 53.572 C 247.667 52.611,247.632 52.500,247.333 52.500 C 247.037 52.500,247.000 52.389,247.000 51.500 C 247.000 50.611,246.963 50.500,246.667 50.500 C 246.370 50.500,246.333 50.389,246.333 49.484 C 246.333 48.609,246.287 48.457,246.000 48.382 C 245.718 48.308,245.667 48.154,245.667 47.382 C 245.667 46.609,245.615 46.455,245.333 46.382 C 245.070 46.313,245.000 46.154,245.000 45.632 C 245.000 45.115,244.928 44.950,244.676 44.884 C 244.443 44.823,244.337 44.628,244.301 44.191 C 244.260 43.707,244.174 43.573,243.875 43.530 C 243.559 43.485,243.500 43.374,243.500 42.822 C 243.500 42.278,243.443 42.167,243.167 42.167 C 242.939 42.167,242.833 42.056,242.833 41.818 C 242.833 41.609,242.699 41.434,242.500 41.382 C 241.843 41.210,242.096 40.667,242.833 40.667 C 243.389 40.667,243.500 40.611,243.500 40.333 C 243.500 40.106,243.611 40.000,243.849 40.000 C 244.058 40.000,244.233 39.866,244.285 39.667 C 244.333 39.483,244.478 39.333,244.607 39.333 C 244.736 39.333,244.909 39.156,244.991 38.939 C 245.074 38.723,245.259 38.500,245.404 38.445 C 245.575 38.379,245.667 38.137,245.667 37.755 C 245.667 37.278,245.730 37.167,246.000 37.167 C 246.296 37.167,246.333 37.056,246.333 36.167 C 246.333 35.278,246.370 35.167,246.667 35.167 C 246.994 35.167,247.000 35.056,247.000 28.583 C 247.000 22.111,246.994 22.000,246.667 22.000 C 246.370 22.000,246.333 21.889,246.333 20.984 C 246.333 20.109,246.287 19.957,246.000 19.882 C 245.816 19.833,245.667 19.654,245.667 19.481 C 245.667 19.278,245.549 19.167,245.333 19.167 C 245.111 19.167,245.000 19.056,245.000 18.833 C 245.000 18.615,244.889 18.500,244.678 18.500 C 244.471 18.500,244.337 18.366,244.303 18.125 C 244.269 17.884,244.116 17.731,243.875 17.697 C 243.634 17.663,243.500 17.529,243.500 17.322 C 243.500 17.111,243.385 17.000,243.167 17.000 C 242.944 17.000,242.833 16.889,242.833 16.667 C 242.833 16.389,242.722 16.333,242.167 16.333 C 241.611 16.333,241.500 16.278,241.500 16.000 C 241.500 15.701,241.389 15.667,240.417 15.667 C 239.444 15.667,239.333 15.632,239.333 15.333 C 239.333 15.003,239.222 15.000,227.833 15.000 L 216.333 15.000 216.333 36.167 M24.770 16.193 C 24.712 16.483,24.702 16.758,24.749 16.804 C 24.795 16.851,24.833 16.764,24.833 16.611 C 24.833 16.458,24.983 16.183,25.167 16.000 C 25.485 15.681,25.486 15.667,25.188 15.667 C 24.970 15.667,24.843 15.827,24.770 16.193 M41.500 15.821 C 41.500 15.920,41.577 16.000,41.672 16.000 C 41.767 16.000,41.915 16.169,42.003 16.375 C 42.148 16.718,42.158 16.707,42.122 16.251 C 42.086 15.784,41.500 15.379,41.500 15.821 M161.333 20.167 L 161.333 24.000 159.917 24.000 L 158.500 24.000 158.500 27.833 L 158.500 31.667 159.917 31.667 L 161.333 31.667 161.333 40.667 C 161.333 49.556,161.337 49.667,161.667 49.667 C 161.974 49.667,162.000 49.778,162.000 51.083 C 162.000 52.389,162.026 52.500,162.333 52.500 C 162.611 52.500,162.667 52.611,162.667 53.163 C 162.667 53.732,162.726 53.842,163.083 53.932 C 163.344 53.997,163.500 54.154,163.500 54.351 C 163.500 54.556,163.617 54.667,163.833 54.667 C 164.056 54.667,164.167 54.778,164.167 55.000 C 164.167 55.222,164.278 55.333,164.500 55.333 C 164.722 55.333,164.833 55.444,164.833 55.667 C 164.833 55.944,164.944 56.000,165.500 56.000 C 166.056 56.000,166.167 56.056,166.167 56.333 C 166.167 56.617,166.278 56.667,166.917 56.667 C 167.556 56.667,167.667 56.716,167.667 57.000 C 167.667 57.327,167.778 57.333,173.167 57.333 L 178.667 57.333 178.667 52.833 L 178.667 48.333 175.250 48.333 L 171.833 48.333 171.833 40.000 L 171.833 31.667 175.250 31.667 L 178.667 31.667 178.667 27.833 L 178.667 24.000 175.250 24.000 L 171.833 24.000 171.833 20.167 L 171.833 16.333 166.583 16.333 L 161.333 16.333 161.333 20.167 M24.292 17.185 C 23.992 17.354,23.885 17.833,24.146 17.833 C 24.358 17.833,24.708 17.373,24.641 17.183 C 24.604 17.078,24.479 17.079,24.292 17.185 M42.466 17.500 C 42.726 17.958,42.755 17.970,42.806 17.644 C 42.837 17.448,42.762 17.224,42.640 17.146 C 42.232 16.888,42.179 16.995,42.466 17.500 M23.444 18.611 C 23.214 18.842,23.329 19.325,23.591 19.224 C 23.732 19.170,23.808 19.086,23.760 19.038 C 23.711 18.989,23.802 18.851,23.961 18.730 C 24.229 18.526,24.225 18.510,23.903 18.505 C 23.712 18.502,23.506 18.550,23.444 18.611 M42.833 18.649 C 42.833 18.744,42.990 18.905,43.182 19.008 C 43.480 19.168,43.521 19.151,43.471 18.891 C 43.410 18.571,42.833 18.352,42.833 18.649 M22.753 20.232 L 22.257 20.692 22.754 20.573 C 23.373 20.424,23.375 20.422,23.306 20.066 C 23.257 19.811,23.184 19.833,22.753 20.232 M43.500 20.087 C 43.500 20.341,44.301 20.755,44.468 20.588 C 44.516 20.540,44.468 20.500,44.361 20.500 C 44.254 20.500,44.167 20.396,44.167 20.268 C 44.167 20.140,44.048 19.990,43.903 19.934 C 43.530 19.791,43.500 19.803,43.500 20.087 M20.724 20.757 C 20.580 21.132,20.802 21.271,21.043 20.957 C 21.157 20.809,21.475 20.656,21.750 20.619 C 22.139 20.565,22.092 20.544,21.536 20.525 C 21.030 20.507,20.794 20.575,20.724 20.757 M45.167 20.621 C 45.396 20.663,45.715 20.815,45.876 20.959 C 46.207 21.254,46.424 21.144,46.276 20.757 C 46.206 20.575,45.968 20.507,45.464 20.523 C 45.005 20.537,44.899 20.573,45.167 20.621 M15.292 21.282 C 15.131 21.323,15.000 21.502,15.000 21.679 C 15.000 22.096,15.141 22.077,15.750 21.578 C 16.262 21.158,16.118 21.066,15.292 21.282 M51.042 21.460 C 51.294 21.616,51.500 21.802,51.500 21.872 C 51.500 21.942,51.575 22.000,51.667 22.000 C 52.007 22.000,51.827 21.371,51.458 21.272 C 50.764 21.086,50.575 21.171,51.042 21.460 M9.500 22.333 C 9.500 22.728,9.606 22.752,9.929 22.429 C 10.252 22.106,10.228 22.000,9.833 22.000 C 9.611 22.000,9.500 22.111,9.500 22.333 M43.371 22.210 C 43.219 22.398,42.595 23.687,41.332 26.417 C 41.078 26.967,40.609 27.979,40.290 28.667 C 39.971 29.354,39.663 30.029,39.606 30.167 C 39.549 30.304,39.433 30.529,39.349 30.667 C 39.265 30.804,38.993 31.367,38.745 31.917 C 38.497 32.467,38.010 33.517,37.663 34.250 C 37.316 34.983,36.766 36.154,36.439 36.852 C 35.647 38.546,35.830 38.495,26.917 39.502 C 26.092 39.595,24.367 39.821,23.083 40.004 C 21.800 40.186,20.151 40.391,19.418 40.460 C 17.318 40.655,17.388 40.778,22.104 45.167 C 24.179 47.097,28.116 50.803,29.363 52.000 L 30.666 53.250 30.475 53.863 C 30.354 54.253,30.157 54.509,29.934 54.565 C 29.741 54.614,29.482 54.818,29.358 55.018 C 29.161 55.337,29.166 55.369,29.400 55.279 C 29.848 55.108,29.784 57.347,29.333 57.628 C 29.032 57.816,29.000 58.017,29.000 59.740 C 29.000 61.587,28.989 61.645,28.625 61.697 C 28.269 61.747,28.248 61.831,28.213 63.333 C 28.181 64.714,28.132 64.946,27.838 65.145 C 27.537 65.349,27.500 65.553,27.500 67.001 C 27.500 68.488,27.471 68.635,27.167 68.715 C 26.866 68.794,26.833 68.942,26.833 70.234 L 26.833 71.667 28.083 71.667 C 28.806 71.667,29.333 71.596,29.333 71.500 C 29.333 71.408,29.558 71.333,29.833 71.333 C 30.222 71.333,30.333 71.259,30.333 71.000 C 30.333 70.729,30.444 70.667,30.932 70.667 C 31.379 70.667,31.552 70.587,31.613 70.352 C 31.669 70.140,31.902 70.005,32.328 69.937 C 32.771 69.866,32.987 69.735,33.048 69.501 C 33.112 69.258,33.275 69.167,33.645 69.167 C 33.984 69.167,34.215 69.055,34.333 68.833 C 34.431 68.650,34.641 68.500,34.799 68.500 C 34.957 68.500,35.180 68.350,35.295 68.167 C 35.430 67.950,35.683 67.833,36.017 67.833 C 36.391 67.833,36.555 67.742,36.618 67.500 C 36.684 67.247,36.846 67.167,37.285 67.167 C 37.724 67.167,37.886 67.086,37.952 66.833 C 38.007 66.622,38.179 66.500,38.422 66.500 C 38.967 66.500,39.333 66.333,39.333 66.084 C 39.333 65.967,39.604 65.820,39.935 65.758 C 40.331 65.683,40.566 65.534,40.621 65.322 C 40.672 65.130,40.850 65.000,41.063 65.000 C 41.259 65.000,41.513 64.850,41.628 64.667 C 41.761 64.454,42.017 64.333,42.335 64.333 C 42.722 64.333,42.833 64.259,42.833 64.000 C 42.833 63.716,42.944 63.667,43.583 63.667 C 44.222 63.667,44.333 63.716,44.333 64.000 C 44.333 64.259,44.444 64.333,44.832 64.333 C 45.150 64.333,45.406 64.454,45.539 64.667 C 45.653 64.850,45.886 65.000,46.056 65.000 C 46.226 65.000,46.402 65.145,46.449 65.321 C 46.506 65.542,46.737 65.677,47.183 65.753 C 47.551 65.815,47.833 65.957,47.833 66.080 C 47.833 66.335,48.198 66.500,48.764 66.500 C 49.056 66.500,49.167 66.592,49.167 66.833 C 49.167 67.111,49.278 67.167,49.833 67.167 C 50.389 67.167,50.500 67.222,50.500 67.500 C 50.500 67.770,50.611 67.833,51.082 67.833 C 51.483 67.833,51.728 67.937,51.872 68.167 C 51.987 68.350,52.203 68.500,52.354 68.500 C 52.505 68.500,52.667 68.650,52.715 68.833 C 52.782 69.089,52.942 69.167,53.401 69.167 C 53.888 69.167,54.000 69.229,54.000 69.498 C 54.000 69.758,54.149 69.853,54.689 69.940 C 55.161 70.015,55.403 70.147,55.458 70.358 C 55.519 70.592,55.696 70.667,56.186 70.667 C 56.722 70.667,56.833 70.724,56.833 71.000 C 56.833 71.259,56.944 71.333,57.333 71.333 C 57.608 71.333,57.833 71.408,57.833 71.500 C 57.833 71.596,58.361 71.667,59.083 71.667 L 60.333 71.667 60.333 70.688 C 60.333 69.301,60.186 68.711,59.815 68.614 C 59.533 68.540,59.500 68.360,59.500 66.868 C 59.500 65.346,59.472 65.198,59.167 65.118 C 58.861 65.038,58.833 64.891,58.833 63.349 C 58.833 61.778,58.811 61.667,58.500 61.667 C 58.187 61.667,58.167 61.556,58.167 59.833 C 58.167 58.222,58.126 57.960,57.833 57.667 C 57.548 57.381,57.500 57.111,57.500 55.783 C 57.500 54.800,57.427 54.160,57.300 54.033 C 57.144 53.878,57.144 53.833,57.300 53.833 C 57.410 53.833,57.500 53.683,57.500 53.500 C 57.500 53.278,57.611 53.167,57.833 53.167 C 58.056 53.167,58.167 53.056,58.167 52.833 C 58.167 52.611,58.278 52.500,58.500 52.500 C 58.722 52.500,58.833 52.389,58.833 52.167 C 58.833 51.944,58.944 51.833,59.167 51.833 C 59.389 51.833,59.500 51.722,59.500 51.500 C 59.500 51.273,59.611 51.167,59.849 51.167 C 60.052 51.167,60.233 51.034,60.281 50.849 C 60.327 50.674,60.507 50.493,60.682 50.448 C 60.867 50.399,61.000 50.219,61.000 50.016 C 61.000 49.778,61.106 49.667,61.333 49.667 C 61.556 49.667,61.667 49.556,61.667 49.333 C 61.667 49.111,61.778 49.000,62.000 49.000 C 62.222 49.000,62.333 48.889,62.333 48.667 C 62.333 48.444,62.444 48.333,62.667 48.333 C 62.889 48.333,63.000 48.222,63.000 48.000 C 63.000 47.773,63.111 47.667,63.349 47.667 C 63.558 47.667,63.733 47.533,63.785 47.333 C 63.833 47.149,64.012 47.000,64.186 47.000 C 64.359 47.000,64.500 46.889,64.500 46.752 C 64.500 46.616,64.762 46.395,65.083 46.261 C 65.404 46.127,65.667 45.901,65.667 45.759 C 65.667 45.616,65.775 45.500,65.907 45.500 C 66.040 45.500,66.246 45.364,66.366 45.197 C 66.485 45.031,66.715 44.846,66.875 44.786 C 67.035 44.726,67.167 44.571,67.167 44.441 C 67.167 44.312,67.317 44.166,67.500 44.118 C 67.683 44.070,67.833 43.912,67.833 43.766 C 67.833 43.614,67.972 43.500,68.155 43.500 C 68.333 43.500,68.524 43.354,68.581 43.175 C 68.637 42.997,68.830 42.804,69.009 42.747 C 69.187 42.691,69.333 42.542,69.333 42.417 C 69.333 42.292,69.483 42.142,69.667 42.083 C 69.951 41.993,70.000 41.831,70.000 40.989 L 70.000 40.000 68.583 40.000 C 67.278 40.000,67.167 39.974,67.167 39.667 C 67.167 39.347,67.056 39.333,64.417 39.333 C 61.778 39.333,61.667 39.320,61.667 39.000 C 61.667 38.680,61.556 38.667,58.928 38.667 C 56.336 38.667,56.183 38.649,56.083 38.333 C 55.991 38.041,55.830 38.000,54.780 37.997 C 54.122 37.996,53.665 37.940,53.765 37.872 C 53.864 37.805,53.990 37.574,54.045 37.359 C 54.143 36.972,54.139 36.972,53.695 37.417 C 52.426 38.686,51.505 38.514,50.734 36.864 C 50.405 36.159,50.068 35.471,49.984 35.333 C 49.900 35.196,49.785 34.971,49.728 34.833 C 49.590 34.498,48.758 32.686,48.083 31.250 C 47.382 29.759,46.072 26.946,45.676 26.083 C 44.107 22.659,43.641 21.876,43.371 22.210 M56.662 22.186 C 56.889 22.276,57.128 22.438,57.195 22.545 C 57.360 22.813,57.565 22.575,57.442 22.257 C 57.380 22.094,57.143 22.004,56.797 22.011 C 56.267 22.021,56.263 22.026,56.662 22.186 M3.944 22.778 C 3.883 22.839,3.833 22.989,3.833 23.111 C 3.833 23.447,4.388 23.377,4.711 23.000 C 5.000 22.663,4.270 22.452,3.944 22.778 M62.083 22.788 C 62.267 22.833,62.477 22.975,62.550 23.102 C 62.746 23.442,63.000 23.384,63.000 23.000 C 63.000 22.722,62.895 22.670,62.375 22.686 C 62.012 22.697,61.890 22.740,62.083 22.788 M111.833 28.833 L 111.833 33.667 107.667 33.667 L 103.500 33.667 103.500 28.833 L 103.500 24.000 107.667 24.000 L 111.833 24.000 111.833 28.833 M130.000 28.500 L 130.000 33.000 136.583 33.000 L 143.167 33.000 143.167 35.081 L 143.167 37.162 138.042 37.206 L 132.917 37.250 132.863 37.625 C 132.817 37.949,132.711 38.000,132.072 38.000 C 131.444 38.000,131.333 38.050,131.333 38.333 C 131.333 38.611,131.222 38.667,130.667 38.667 C 130.111 38.667,130.000 38.722,130.000 39.000 C 130.000 39.222,129.889 39.333,129.667 39.333 C 129.451 39.333,129.333 39.444,129.333 39.647 C 129.333 39.820,129.195 39.997,129.025 40.042 C 128.710 40.124,128.500 40.781,128.500 41.688 C 128.500 42.056,128.423 42.167,128.167 42.167 C 127.840 42.167,127.833 42.278,127.833 47.667 C 127.833 53.056,127.840 53.167,128.167 53.167 C 128.434 53.167,128.500 53.278,128.500 53.729 C 128.500 54.764,128.685 55.333,129.021 55.333 C 129.222 55.333,129.333 55.452,129.333 55.667 C 129.333 55.889,129.444 56.000,129.667 56.000 C 129.889 56.000,130.000 56.111,130.000 56.333 C 130.000 56.556,130.111 56.667,130.333 56.667 C 130.556 56.667,130.667 56.778,130.667 57.000 C 130.667 57.274,130.778 57.333,131.294 57.333 C 131.784 57.333,131.957 57.415,132.085 57.708 L 132.250 58.083 136.667 58.083 L 141.083 58.083 141.137 57.708 C 141.182 57.392,141.292 57.333,141.845 57.333 C 142.389 57.333,142.500 57.277,142.500 57.000 C 142.500 56.778,142.611 56.667,142.833 56.667 C 143.056 56.667,143.167 56.556,143.167 56.333 C 143.167 56.111,143.278 56.000,143.500 56.000 C 143.741 56.000,143.833 56.111,143.833 56.403 C 143.833 57.374,143.616 57.333,148.851 57.333 L 153.667 57.333 153.667 43.178 C 153.667 29.169,153.663 29.021,153.333 28.917 C 153.074 28.834,153.000 28.664,153.000 28.155 C 153.000 27.621,152.941 27.500,152.681 27.500 C 152.439 27.500,152.335 27.339,152.250 26.833 C 152.165 26.327,152.061 26.167,151.819 26.167 C 151.616 26.167,151.500 26.051,151.500 25.848 C 151.500 25.606,151.339 25.502,150.833 25.417 C 150.327 25.331,150.167 25.227,150.167 24.985 C 150.167 24.726,150.046 24.667,149.519 24.667 C 149.012 24.667,148.853 24.594,148.785 24.333 C 148.699 24.005,148.558 24.000,139.349 24.000 L 130.000 24.000 130.000 28.500 M188.500 24.333 C 188.500 24.630,188.389 24.667,187.500 24.667 C 186.623 24.667,186.500 24.706,186.500 24.988 C 186.500 25.195,186.366 25.329,186.125 25.363 C 185.884 25.398,185.731 25.551,185.697 25.792 C 185.663 26.033,185.529 26.167,185.322 26.167 C 185.111 26.167,185.000 26.282,185.000 26.500 C 185.000 26.722,184.889 26.833,184.667 26.833 C 184.451 26.833,184.333 26.944,184.333 27.147 C 184.333 27.321,184.184 27.500,184.000 27.548 C 183.701 27.626,183.667 27.776,183.667 28.984 C 183.667 30.222,183.639 30.333,183.333 30.333 C 183.004 30.333,183.000 30.444,183.000 40.314 C 183.000 50.154,183.005 50.296,183.333 50.382 C 183.621 50.457,183.667 50.609,183.667 51.484 C 183.667 52.389,183.703 52.500,184.000 52.500 C 184.279 52.500,184.333 52.611,184.333 53.182 C 184.333 53.724,184.402 53.882,184.667 53.952 C 184.851 54.000,185.000 54.179,185.000 54.353 C 185.000 54.556,185.118 54.667,185.333 54.667 C 185.556 54.667,185.667 54.778,185.667 55.000 C 185.667 55.218,185.778 55.333,185.989 55.333 C 186.166 55.333,186.358 55.483,186.417 55.667 C 186.475 55.850,186.667 56.000,186.845 56.000 C 187.056 56.000,187.167 56.115,187.167 56.333 C 187.167 56.630,187.278 56.667,188.167 56.667 C 189.056 56.667,189.167 56.704,189.167 57.000 C 189.167 57.329,189.278 57.333,198.583 57.333 L 208.000 57.333 208.000 52.833 L 208.000 48.333 200.667 48.333 L 193.333 48.333 193.333 46.583 L 193.333 44.833 201.333 44.833 L 209.333 44.833 209.333 37.583 C 209.333 30.444,209.328 30.333,209.000 30.333 C 208.694 30.333,208.667 30.222,208.667 28.984 C 208.667 27.776,208.632 27.626,208.333 27.548 C 208.149 27.500,208.000 27.321,208.000 27.147 C 208.000 26.944,207.882 26.833,207.667 26.833 C 207.444 26.833,207.333 26.722,207.333 26.500 C 207.333 26.278,207.222 26.167,207.000 26.167 C 206.773 26.167,206.667 26.056,206.667 25.818 C 206.667 25.615,206.534 25.434,206.349 25.386 C 206.174 25.340,205.993 25.159,205.948 24.985 C 205.883 24.739,205.714 24.667,205.202 24.667 C 204.679 24.667,204.520 24.596,204.452 24.333 C 204.366 24.006,204.224 24.000,196.432 24.000 C 188.611 24.000,188.500 24.005,188.500 24.333 M235.833 28.833 L 235.833 33.667 231.667 33.667 L 227.500 33.667 227.500 28.833 L 227.500 24.000 231.667 24.000 L 235.833 24.000 235.833 28.833 M254.000 28.500 L 254.000 33.000 260.667 33.000 L 267.333 33.000 267.333 35.083 L 267.333 37.167 262.347 37.167 C 257.067 37.167,256.833 37.189,256.833 37.684 C 256.833 37.947,256.708 38.000,256.083 38.000 C 255.444 38.000,255.333 38.049,255.333 38.333 C 255.333 38.611,255.222 38.667,254.667 38.667 C 254.111 38.667,254.000 38.722,254.000 39.000 C 254.000 39.222,253.889 39.333,253.667 39.333 C 253.451 39.333,253.333 39.444,253.333 39.647 C 253.333 39.821,253.184 40.000,253.000 40.048 C 252.713 40.123,252.667 40.276,252.667 41.151 C 252.667 42.056,252.630 42.167,252.333 42.167 C 252.007 42.167,252.000 42.278,252.000 47.667 C 252.000 53.056,252.007 53.167,252.333 53.167 C 252.632 53.167,252.667 53.278,252.667 54.250 C 252.667 55.222,252.701 55.333,253.000 55.333 C 253.222 55.333,253.333 55.444,253.333 55.667 C 253.333 55.889,253.444 56.000,253.667 56.000 C 253.889 56.000,254.000 56.111,254.000 56.333 C 254.000 56.556,254.111 56.667,254.333 56.667 C 254.556 56.667,254.667 56.778,254.667 57.000 C 254.667 57.284,254.778 57.333,255.417 57.333 C 256.053 57.333,256.167 57.383,256.167 57.663 C 256.167 58.150,256.496 58.182,261.000 58.130 L 265.083 58.083 265.137 57.708 C 265.182 57.392,265.292 57.333,265.845 57.333 C 266.389 57.333,266.500 57.277,266.500 57.000 C 266.500 56.778,266.611 56.667,266.833 56.667 C 267.049 56.667,267.167 56.556,267.167 56.353 C 267.167 56.150,267.315 56.011,267.583 55.959 C 267.976 55.884,268.000 55.921,268.000 56.606 L 268.000 57.333 272.833 57.333 L 277.667 57.333 277.667 43.178 C 277.667 29.169,277.663 29.021,277.333 28.917 C 277.074 28.834,277.000 28.664,277.000 28.155 C 277.000 27.611,276.943 27.500,276.667 27.500 C 276.396 27.500,276.333 27.389,276.333 26.913 C 276.333 26.439,276.252 26.294,275.917 26.167 C 275.688 26.080,275.500 25.900,275.500 25.769 C 275.500 25.619,275.250 25.487,274.833 25.417 C 274.327 25.331,274.167 25.227,274.167 24.985 C 274.167 24.726,274.046 24.667,273.519 24.667 C 273.012 24.667,272.853 24.594,272.785 24.333 C 272.699 24.005,272.558 24.000,263.349 24.000 L 254.000 24.000 254.000 28.500 M284.000 40.667 L 284.000 57.333 289.250 57.333 L 294.500 57.333 294.500 45.167 L 294.500 33.000 297.583 33.000 L 300.667 33.000 300.667 45.167 L 300.667 57.333 305.917 57.333 L 311.167 57.333 311.167 43.568 C 311.167 29.942,311.163 29.801,310.833 29.715 C 310.547 29.640,310.500 29.488,310.500 28.632 C 310.500 27.776,310.453 27.623,310.167 27.548 C 309.955 27.493,309.833 27.321,309.833 27.078 C 309.833 26.475,309.658 26.167,309.316 26.167 C 309.106 26.167,309.000 26.049,309.000 25.818 C 309.000 25.609,308.866 25.434,308.667 25.382 C 308.483 25.334,308.333 25.199,308.333 25.082 C 308.333 24.795,307.949 24.667,307.089 24.667 C 306.512 24.667,306.355 24.601,306.285 24.333 C 306.200 24.010,306.058 24.000,301.349 24.000 C 296.611 24.000,296.500 24.008,296.500 24.333 C 296.500 24.605,296.389 24.667,295.901 24.667 C 295.446 24.667,295.282 24.745,295.216 24.994 C 295.169 25.175,294.989 25.367,294.815 25.422 C 294.576 25.498,294.500 25.681,294.500 26.178 C 294.500 26.766,294.457 26.833,294.083 26.833 C 293.672 26.833,293.667 26.817,293.667 25.417 L 293.667 24.000 288.833 24.000 L 284.000 24.000 284.000 40.667 M355.000 24.333 C 355.000 24.630,354.889 24.667,354.000 24.667 C 353.111 24.667,353.000 24.704,353.000 25.000 C 353.000 25.222,352.889 25.333,352.667 25.333 C 352.422 25.333,352.333 25.444,352.333 25.750 C 352.333 26.083,352.250 26.167,351.917 26.167 C 351.611 26.167,351.500 26.256,351.500 26.500 C 351.500 26.722,351.389 26.833,351.167 26.833 C 350.951 26.833,350.833 26.944,350.833 27.147 C 350.833 27.321,350.684 27.500,350.500 27.548 C 350.201 27.626,350.167 27.776,350.167 28.984 C 350.167 30.222,350.139 30.333,349.833 30.333 C 349.504 30.333,349.500 30.444,349.500 40.314 C 349.500 50.154,349.505 50.296,349.833 50.382 C 350.121 50.457,350.167 50.609,350.167 51.484 C 350.167 52.389,350.203 52.500,350.500 52.500 C 350.779 52.500,350.833 52.611,350.833 53.182 C 350.833 53.713,350.904 53.883,351.151 53.948 C 351.326 53.993,351.507 54.174,351.552 54.349 C 351.601 54.534,351.781 54.667,351.984 54.667 C 352.222 54.667,352.333 54.773,352.333 55.000 C 352.333 55.222,352.444 55.333,352.667 55.333 C 352.889 55.333,353.000 55.444,353.000 55.667 C 353.000 55.889,353.111 56.000,353.333 56.000 C 353.556 56.000,353.667 56.111,353.667 56.333 C 353.667 56.632,353.778 56.667,354.750 56.667 C 355.722 56.667,355.833 56.701,355.833 57.000 C 355.833 57.329,355.944 57.333,365.167 57.333 L 374.500 57.333 374.500 52.833 L 374.500 48.333 367.250 48.333 L 360.000 48.333 360.000 46.583 L 360.000 44.833 368.000 44.833 L 376.000 44.833 376.000 37.847 C 376.000 30.748,375.976 30.333,375.566 30.333 C 375.396 30.333,375.333 30.092,375.333 29.437 C 375.333 28.077,375.178 27.500,374.813 27.500 C 374.611 27.500,374.500 27.381,374.500 27.167 C 374.500 26.944,374.389 26.833,374.167 26.833 C 373.944 26.833,373.833 26.722,373.833 26.500 C 373.833 26.278,373.722 26.167,373.500 26.167 C 373.256 26.167,373.167 26.056,373.167 25.750 C 373.167 25.453,373.076 25.333,372.853 25.333 C 372.679 25.333,372.500 25.184,372.452 25.000 C 372.383 24.737,372.224 24.667,371.702 24.667 C 371.179 24.667,371.020 24.596,370.952 24.333 C 370.866 24.006,370.724 24.000,362.932 24.000 C 355.111 24.000,355.000 24.005,355.000 24.333 M381.500 40.667 L 381.500 57.333 386.750 57.333 L 392.000 57.333 392.000 45.167 L 392.000 33.000 395.833 33.000 L 399.667 33.000 399.667 28.500 L 399.667 24.000 396.928 24.000 C 394.336 24.000,394.183 24.018,394.083 24.333 C 394.001 24.592,393.831 24.667,393.322 24.667 C 392.791 24.667,392.667 24.726,392.667 24.981 C 392.667 25.154,392.518 25.333,392.333 25.382 C 392.134 25.434,392.000 25.609,392.000 25.818 C 392.000 26.056,391.894 26.167,391.667 26.167 C 391.368 26.167,391.333 26.056,391.333 25.083 L 391.333 24.000 386.417 24.000 L 381.500 24.000 381.500 40.667 M0.362 25.750 C 0.399 25.965,0.568 26.097,0.835 26.121 C 1.063 26.141,1.137 26.114,1.000 26.060 C 0.862 26.006,0.650 25.839,0.527 25.689 C 0.325 25.443,0.309 25.448,0.362 25.750 M1.041 26.542 C 1.079 26.656,1.272 26.774,1.471 26.803 C 1.699 26.837,1.833 26.975,1.833 27.178 C 1.833 27.389,1.948 27.500,2.167 27.500 C 2.389 27.500,2.500 27.611,2.500 27.833 C 2.500 28.056,2.611 28.167,2.833 28.167 C 3.056 28.167,3.167 28.278,3.167 28.500 C 3.167 28.722,3.278 28.833,3.500 28.833 C 3.688 28.833,3.833 28.944,3.833 29.087 C 3.833 29.227,4.021 29.413,4.250 29.500 C 4.479 29.587,4.667 29.773,4.667 29.913 C 4.667 30.052,4.808 30.167,4.981 30.167 C 5.153 30.167,5.331 30.305,5.375 30.475 C 5.419 30.644,5.606 30.822,5.790 30.870 C 6.053 30.939,6.107 30.892,6.043 30.646 C 5.998 30.474,5.899 30.333,5.822 30.333 C 5.746 30.333,5.482 30.146,5.234 29.917 C 4.987 29.688,4.729 29.500,4.662 29.500 C 4.594 29.500,4.500 29.350,4.452 29.167 C 4.404 28.983,4.245 28.833,4.099 28.833 C 3.953 28.833,3.833 28.758,3.833 28.667 C 3.833 28.575,3.772 28.500,3.698 28.500 C 3.623 28.500,3.055 28.012,2.436 27.417 C 1.360 26.383,0.892 26.089,1.041 26.542 M65.439 26.561 C 64.980 26.841,64.167 27.668,64.167 27.856 C 64.167 27.946,64.094 27.975,64.005 27.920 C 63.917 27.865,63.749 27.973,63.632 28.160 C 63.515 28.347,63.368 28.500,63.304 28.500 C 63.241 28.500,62.814 28.865,62.356 29.311 C 61.898 29.757,61.406 30.167,61.262 30.222 C 61.118 30.278,61.000 30.431,61.000 30.564 C 61.000 30.697,60.906 30.843,60.792 30.890 C 60.630 30.955,60.632 30.977,60.800 30.987 C 60.919 30.994,61.181 30.826,61.383 30.613 C 61.585 30.400,61.881 30.177,62.042 30.118 C 62.202 30.059,62.333 29.896,62.333 29.755 C 62.333 29.611,62.478 29.500,62.667 29.500 C 62.889 29.500,63.000 29.389,63.000 29.167 C 63.000 28.944,63.111 28.833,63.333 28.833 C 63.521 28.833,63.667 28.722,63.667 28.579 C 63.667 28.439,63.854 28.254,64.083 28.167 C 64.313 28.080,64.500 27.894,64.500 27.754 C 64.500 27.614,64.620 27.500,64.766 27.500 C 64.912 27.500,65.070 27.350,65.118 27.167 C 65.166 26.983,65.305 26.833,65.426 26.833 C 65.641 26.833,65.925 26.530,65.808 26.425 C 65.776 26.396,65.610 26.457,65.439 26.561 M60.118 31.333 C 60.070 31.517,60.090 31.667,60.163 31.667 C 60.235 31.667,60.334 31.517,60.382 31.333 C 60.430 31.150,60.410 31.000,60.337 31.000 C 60.265 31.000,60.166 31.150,60.118 31.333 M199.000 35.500 L 199.000 38.000 196.167 38.000 L 193.333 38.000 193.333 35.500 L 193.333 33.000 196.167 33.000 L 199.000 33.000 199.000 35.500 M365.500 35.500 L 365.500 38.000 362.750 38.000 L 360.000 38.000 360.000 35.500 L 360.000 33.000 362.750 33.000 L 365.500 33.000 365.500 35.500 M57.333 34.083 C 57.333 34.221,57.253 34.333,57.154 34.333 C 56.927 34.333,56.000 35.251,56.000 35.476 C 56.000 35.568,55.831 35.676,55.625 35.716 C 55.250 35.788,55.250 35.788,55.641 35.811 C 55.903 35.826,56.060 35.724,56.118 35.500 C 56.167 35.316,56.346 35.167,56.519 35.167 C 56.716 35.167,56.833 35.049,56.833 34.853 C 56.833 34.679,56.982 34.500,57.167 34.452 C 57.448 34.378,57.668 33.833,57.417 33.833 C 57.371 33.833,57.333 33.946,57.333 34.083 M11.500 36.139 C 11.500 36.361,11.604 36.500,11.770 36.500 C 12.002 36.500,12.009 36.458,11.818 36.208 C 11.695 36.048,11.573 35.885,11.547 35.847 C 11.521 35.809,11.500 35.940,11.500 36.139 M12.167 36.806 C 12.167 37.028,12.271 37.167,12.437 37.167 C 12.669 37.167,12.675 37.125,12.484 36.875 C 12.361 36.715,12.240 36.552,12.214 36.514 C 12.188 36.476,12.167 36.607,12.167 36.806 M12.833 37.311 C 12.833 37.520,13.306 38.000,13.512 38.000 C 13.597 38.000,13.667 38.107,13.667 38.239 C 13.667 38.370,13.809 38.523,13.982 38.578 C 14.155 38.633,14.336 38.825,14.383 39.006 C 14.430 39.186,14.588 39.333,14.734 39.333 C 14.880 39.333,15.000 39.448,15.000 39.587 C 15.000 39.727,15.177 39.909,15.394 39.991 C 15.611 40.074,15.833 40.259,15.889 40.404 C 15.944 40.548,16.104 40.667,16.245 40.667 C 16.689 40.667,16.479 40.144,15.958 39.951 C 15.798 39.892,15.667 39.729,15.667 39.589 C 15.667 39.448,15.597 39.352,15.511 39.375 C 15.425 39.398,14.788 38.906,14.094 38.281 C 13.401 37.656,12.833 37.220,12.833 37.311 M15.738 42.758 C 15.677 43.083,15.673 43.395,15.730 43.452 C 15.787 43.509,15.833 43.393,15.833 43.194 C 15.833 42.996,15.938 42.833,16.066 42.833 C 16.317 42.833,16.540 42.428,16.377 42.266 C 16.118 42.007,15.838 42.222,15.738 42.758 M143.167 46.583 L 143.167 49.000 140.750 49.000 L 138.333 49.000 138.333 46.583 L 138.333 44.167 140.750 44.167 L 143.167 44.167 143.167 46.583 M267.333 46.583 L 267.333 49.000 264.833 49.000 L 262.333 49.000 262.333 46.583 L 262.333 44.167 264.833 44.167 L 267.333 44.167 267.333 46.583 M15.173 46.156 C 14.897 46.671,14.972 46.854,15.333 46.545 C 15.682 46.246,15.782 45.833,15.506 45.833 C 15.417 45.833,15.267 45.978,15.173 46.156 M14.336 50.208 C 14.338 50.512,14.369 50.535,14.500 50.333 C 14.709 50.010,14.709 49.833,14.500 49.833 C 14.408 49.833,14.334 50.002,14.336 50.208 M13.958 53.282 C 13.798 53.323,13.667 53.465,13.667 53.596 C 13.667 53.935,13.885 53.889,14.128 53.500 C 14.242 53.317,14.317 53.175,14.293 53.186 C 14.269 53.197,14.119 53.240,13.958 53.282 M28.119 55.664 C 28.046 55.945,28.080 55.969,28.350 55.825 C 28.719 55.627,28.770 55.333,28.436 55.333 C 28.309 55.333,28.167 55.482,28.119 55.664 M26.782 56.343 C 26.710 56.621,26.762 56.677,27.053 56.635 C 27.251 56.607,27.438 56.452,27.469 56.292 C 27.551 55.862,26.895 55.911,26.782 56.343 M13.234 56.794 C 13.040 56.924,12.764 57.833,12.918 57.833 C 12.967 57.833,13.081 57.641,13.170 57.407 C 13.260 57.172,13.408 57.026,13.500 57.083 C 13.592 57.140,13.667 57.069,13.667 56.927 C 13.667 56.645,13.522 56.601,13.234 56.794 M25.763 57.022 C 25.475 57.301,25.471 57.333,25.726 57.333 C 25.882 57.333,26.055 57.218,26.109 57.076 C 26.256 56.692,26.123 56.671,25.763 57.022 M24.238 57.913 C 23.956 58.126,23.951 58.157,24.198 58.161 C 24.354 58.164,24.530 58.087,24.590 57.989 C 24.772 57.695,24.580 57.654,24.238 57.913 M23.217 58.324 C 23.171 58.502,22.972 58.679,22.775 58.718 C 22.488 58.774,22.508 58.792,22.875 58.811 C 23.224 58.828,23.333 58.757,23.333 58.512 C 23.333 58.336,23.465 58.157,23.625 58.115 C 23.890 58.046,23.888 58.037,23.609 58.019 C 23.435 58.008,23.266 58.140,23.217 58.324 M21.833 59.043 C 21.833 59.189,21.702 59.343,21.542 59.385 C 21.268 59.457,21.269 59.463,21.547 59.481 C 21.848 59.500,22.127 59.072,21.937 58.882 C 21.880 58.825,21.833 58.897,21.833 59.043 M20.452 59.833 C 20.352 60.215,20.398 60.233,20.844 59.994 C 21.256 59.774,21.260 59.500,20.853 59.500 C 20.679 59.500,20.500 59.649,20.452 59.833 M19.321 60.208 C 19.182 60.660,19.229 60.846,19.470 60.799 C 19.833 60.729,19.945 60.167,19.596 60.167 C 19.451 60.167,19.328 60.185,19.321 60.208 M12.272 60.708 C 12.082 61.415,12.168 61.808,12.398 61.288 C 12.511 61.033,12.645 60.868,12.697 60.919 C 12.749 60.971,12.831 60.860,12.880 60.673 C 12.945 60.425,12.889 60.333,12.671 60.333 C 12.502 60.333,12.328 60.497,12.272 60.708 M17.945 61.194 C 17.647 61.519,17.649 61.525,18.027 61.472 C 18.239 61.441,18.438 61.285,18.469 61.125 C 18.541 60.747,18.329 60.775,17.945 61.194 M16.833 61.878 C 16.833 62.055,16.650 62.168,16.292 62.213 L 15.750 62.280 16.297 62.307 C 16.817 62.332,17.200 61.978,16.937 61.715 C 16.880 61.658,16.833 61.731,16.833 61.878 M14.167 63.333 C 14.069 63.517,14.054 63.667,14.135 63.667 C 14.216 63.667,14.417 63.517,14.583 63.333 C 14.850 63.039,14.853 63.000,14.615 63.000 C 14.467 63.000,14.265 63.150,14.167 63.333 " stroke="none" fill="#1c2b2c" fill-rule="evenodd"></path><path id="path1" d="M32.424 0.468 C 32.367 0.725,32.174 1.041,31.994 1.171 C 31.768 1.334,31.667 1.602,31.667 2.037 C 31.667 2.525,31.601 2.667,31.375 2.667 C 31.157 2.668,31.075 2.820,31.052 3.271 C 31.034 3.614,30.873 4.030,30.677 4.239 C 30.478 4.450,30.333 4.829,30.333 5.136 C 30.333 5.505,30.254 5.667,30.073 5.667 C 29.931 5.667,29.860 5.742,29.917 5.833 C 29.973 5.925,29.940 6.000,29.843 6.000 C 29.746 6.000,29.667 6.270,29.667 6.599 C 29.667 7.058,29.589 7.218,29.333 7.285 C 29.062 7.356,29.000 7.512,29.000 8.121 C 29.000 8.688,28.944 8.848,28.770 8.781 C 28.426 8.649,28.167 9.001,28.167 9.599 C 28.167 9.909,28.066 10.170,27.926 10.223 C 27.793 10.274,27.634 10.588,27.571 10.921 C 27.509 11.254,27.357 11.565,27.233 11.613 C 27.110 11.660,26.959 11.964,26.898 12.289 C 26.837 12.613,26.648 13.019,26.477 13.189 C 26.306 13.360,26.167 13.716,26.167 13.981 C 26.167 14.301,26.068 14.487,25.871 14.539 C 25.678 14.589,25.561 14.801,25.535 15.144 C 25.512 15.435,25.350 15.817,25.173 15.994 C 24.996 16.170,24.802 16.583,24.740 16.911 C 24.678 17.240,24.477 17.614,24.292 17.744 C 24.065 17.903,23.986 18.094,24.048 18.333 C 24.106 18.554,24.052 18.721,23.905 18.778 C 23.775 18.827,23.705 18.928,23.750 19.000 C 23.795 19.072,23.719 19.175,23.582 19.227 C 23.426 19.287,23.333 19.543,23.333 19.911 C 23.333 20.265,23.250 20.505,23.125 20.512 C 21.968 20.577,21.218 20.728,21.065 20.927 C 20.920 21.115,20.384 21.167,18.581 21.167 C 16.395 21.167,16.255 21.187,15.744 21.576 C 15.233 21.966,15.088 21.987,12.713 22.008 C 10.464 22.029,10.195 22.062,9.989 22.349 C 9.782 22.636,9.530 22.667,7.378 22.667 C 5.203 22.667,4.972 22.696,4.711 23.000 C 4.453 23.302,4.220 23.333,2.213 23.333 L 0.000 23.333 0.000 24.241 C 0.000 25.159,0.472 26.000,0.987 26.000 C 1.097 26.000,1.140 26.075,1.083 26.167 C 1.027 26.258,1.054 26.333,1.145 26.333 C 1.235 26.333,1.816 26.821,2.436 27.417 C 3.055 28.012,3.623 28.500,3.698 28.500 C 3.772 28.500,3.833 28.566,3.833 28.647 C 3.833 28.728,3.983 28.834,4.167 28.882 C 4.350 28.930,4.500 29.088,4.500 29.234 C 4.500 29.380,4.564 29.500,4.642 29.500 C 4.721 29.500,4.987 29.688,5.234 29.917 C 5.482 30.146,5.755 30.333,5.842 30.333 C 5.929 30.333,6.000 30.453,6.000 30.599 C 6.000 30.745,6.150 30.904,6.333 30.952 C 6.517 31.000,6.667 31.138,6.667 31.258 C 6.667 31.379,6.813 31.524,6.991 31.581 C 7.170 31.637,7.360 31.822,7.414 31.991 C 7.467 32.159,7.659 32.336,7.839 32.383 C 8.019 32.430,8.167 32.588,8.167 32.734 C 8.167 32.880,8.279 33.000,8.417 33.000 C 8.554 33.000,8.667 33.111,8.667 33.247 C 8.667 33.383,8.854 33.541,9.083 33.598 C 9.344 33.664,9.500 33.821,9.500 34.018 C 9.500 34.296,9.669 34.405,10.025 34.359 C 10.085 34.351,10.181 34.533,10.238 34.762 C 10.296 34.992,10.405 35.142,10.480 35.096 C 10.555 35.049,10.769 35.178,10.956 35.381 C 11.319 35.776,13.841 38.101,14.875 38.995 C 15.219 39.292,15.505 39.471,15.511 39.392 C 15.516 39.314,15.589 39.419,15.672 39.625 C 15.755 39.831,15.938 40.000,16.078 40.000 C 16.218 40.000,16.340 40.094,16.348 40.208 C 16.363 40.409,16.357 42.454,16.341 42.708 C 16.337 42.777,16.221 42.833,16.083 42.833 C 15.946 42.833,15.830 42.852,15.826 42.875 C 15.821 42.898,15.777 43.667,15.726 44.583 C 15.661 45.771,15.564 46.306,15.388 46.444 C 15.072 46.693,15.028 46.950,15.013 48.635 C 15.006 49.396,14.936 49.980,14.858 49.932 C 14.577 49.758,14.333 50.706,14.333 51.976 C 14.333 53.045,14.275 53.334,13.997 53.632 C 13.811 53.831,13.661 54.032,13.663 54.080 C 13.717 55.426,13.631 57.164,13.513 57.091 C 13.186 56.889,12.815 58.071,12.837 59.250 C 12.866 60.884,12.853 61.032,12.684 60.928 C 12.349 60.720,12.061 63.068,12.374 63.458 C 12.656 63.811,13.923 63.720,14.188 63.328 C 14.325 63.125,14.630 62.975,14.950 62.953 C 15.320 62.928,15.536 62.802,15.655 62.542 C 15.775 62.278,15.970 62.167,16.310 62.167 C 16.654 62.167,16.820 62.070,16.882 61.833 C 16.934 61.634,17.109 61.500,17.318 61.500 C 17.510 61.500,17.811 61.356,17.988 61.179 C 18.164 61.002,18.521 60.834,18.779 60.804 C 19.063 60.771,19.250 60.650,19.250 60.500 C 19.250 60.338,19.447 60.231,19.810 60.196 C 20.182 60.161,20.397 60.041,20.450 59.840 C 20.502 59.640,20.748 59.503,21.181 59.434 C 21.579 59.370,21.833 59.239,21.833 59.096 C 21.833 58.955,22.090 58.819,22.484 58.753 C 22.947 58.675,23.160 58.544,23.224 58.299 C 23.289 58.052,23.408 57.981,23.651 58.044 C 23.867 58.101,24.144 57.988,24.419 57.733 C 24.657 57.513,24.983 57.333,25.144 57.333 C 25.305 57.333,25.598 57.183,25.795 57.000 C 25.992 56.817,26.275 56.667,26.425 56.667 C 26.575 56.667,26.737 56.517,26.785 56.333 C 26.851 56.081,27.012 56.000,27.452 56.000 C 27.891 56.000,28.052 55.919,28.118 55.667 C 28.178 55.437,28.346 55.333,28.656 55.333 C 28.929 55.333,29.249 55.169,29.469 54.917 C 29.668 54.688,29.932 54.500,30.054 54.500 C 30.177 54.500,30.365 54.219,30.472 53.875 L 30.666 53.250 29.363 52.000 C 28.116 50.803,24.179 47.097,22.104 45.167 C 17.388 40.778,17.318 40.655,19.418 40.460 C 20.151 40.391,21.800 40.186,23.083 40.004 C 24.367 39.821,26.092 39.595,26.917 39.502 C 35.830 38.495,35.647 38.546,36.439 36.852 C 36.766 36.154,37.316 34.983,37.663 34.250 C 38.010 33.517,38.497 32.467,38.745 31.917 C 38.993 31.367,39.265 30.804,39.349 30.667 C 39.433 30.529,39.549 30.304,39.606 30.167 C 39.663 30.029,39.971 29.354,40.290 28.667 C 40.609 27.979,41.095 26.929,41.371 26.333 C 42.548 23.787,43.428 22.109,43.581 22.117 C 43.726 22.125,44.803 24.163,45.678 26.083 C 46.036 26.870,47.306 29.598,48.083 31.250 C 48.385 31.892,48.870 32.942,49.160 33.583 C 49.451 34.225,49.760 34.862,49.846 35.000 C 49.932 35.137,50.047 35.362,50.102 35.500 C 50.592 36.733,51.387 38.161,51.624 38.235 C 52.025 38.360,53.152 37.948,53.608 37.509 C 53.814 37.311,54.033 37.159,54.096 37.171 C 54.158 37.184,54.336 37.000,54.492 36.762 C 54.648 36.525,54.823 36.378,54.881 36.437 C 54.940 36.495,55.077 36.346,55.187 36.105 C 55.297 35.863,55.524 35.667,55.693 35.667 C 55.862 35.667,56.000 35.586,56.000 35.487 C 56.000 35.254,56.921 34.333,57.154 34.333 C 57.253 34.333,57.333 34.219,57.333 34.079 C 57.333 33.939,57.521 33.754,57.750 33.667 C 57.979 33.580,58.167 33.403,58.167 33.274 C 58.167 33.144,58.317 33.000,58.500 32.952 C 58.683 32.904,58.833 32.745,58.833 32.599 C 58.833 32.444,58.973 32.333,59.167 32.333 C 59.382 32.333,59.500 32.222,59.500 32.019 C 59.500 31.846,59.649 31.667,59.833 31.618 C 60.017 31.570,60.167 31.420,60.167 31.284 C 60.167 31.148,60.354 30.989,60.583 30.932 C 60.813 30.874,61.000 30.714,61.000 30.575 C 61.000 30.436,61.118 30.278,61.262 30.222 C 61.406 30.167,61.898 29.757,62.356 29.311 C 62.814 28.865,63.241 28.500,63.304 28.500 C 63.368 28.500,63.515 28.347,63.632 28.160 C 63.749 27.973,63.917 27.865,64.005 27.920 C 64.094 27.975,64.167 27.946,64.167 27.856 C 64.167 27.649,65.140 26.667,65.345 26.667 C 65.429 26.667,65.591 26.517,65.705 26.333 C 65.820 26.150,66.010 26.000,66.129 26.000 C 66.247 26.000,66.393 25.869,66.453 25.708 C 66.512 25.548,66.701 25.316,66.873 25.193 C 67.115 25.019,67.173 24.798,67.134 24.193 L 67.083 23.417 64.917 23.372 C 63.090 23.334,62.716 23.282,62.535 23.039 C 62.350 22.791,61.950 22.742,59.743 22.693 C 58.326 22.662,57.167 22.576,57.167 22.501 C 57.167 22.180,55.960 22.000,53.808 22.000 C 52.539 22.000,51.500 21.941,51.500 21.869 C 51.500 21.392,50.478 21.167,48.321 21.167 C 46.618 21.167,46.048 21.111,45.841 20.924 C 45.694 20.790,45.183 20.645,44.706 20.602 C 43.598 20.501,43.500 20.432,43.500 19.746 C 43.500 19.349,43.400 19.125,43.167 19.000 C 42.983 18.902,42.833 18.671,42.833 18.487 C 42.833 18.302,42.646 17.799,42.417 17.369 C 42.188 16.938,42.000 16.489,42.000 16.371 C 42.000 16.253,41.896 16.116,41.770 16.068 C 41.643 16.019,41.492 15.686,41.435 15.328 C 41.373 14.941,41.205 14.610,41.020 14.511 C 40.833 14.410,40.708 14.163,40.708 13.890 C 40.708 13.629,40.558 13.315,40.354 13.150 C 40.116 12.957,40.000 12.674,40.000 12.284 C 40.000 11.846,39.919 11.684,39.667 11.618 C 39.424 11.555,39.333 11.391,39.333 11.017 C 39.333 10.683,39.216 10.430,39.000 10.295 C 38.817 10.180,38.667 9.923,38.667 9.724 C 38.667 9.186,38.494 8.833,38.232 8.833 C 38.091 8.833,37.999 8.654,37.998 8.375 C 37.996 8.123,37.887 7.729,37.754 7.500 C 37.622 7.271,37.464 6.971,37.403 6.833 C 37.343 6.696,37.146 6.265,36.965 5.875 C 36.785 5.486,36.621 5.056,36.601 4.921 C 36.581 4.785,36.400 4.499,36.199 4.285 C 35.998 4.070,35.833 3.694,35.833 3.449 C 35.833 3.183,35.698 2.919,35.500 2.795 C 35.284 2.660,35.167 2.406,35.167 2.075 C 35.167 1.793,35.029 1.415,34.860 1.234 C 34.692 1.053,34.503 0.702,34.441 0.453 C 34.263 -0.254,32.580 -0.242,32.424 0.468 " stroke="none" fill="#4b5353" fill-rule="evenodd"></path></g></svg>