<svg id="svg" xmlns="http://www.w3.org/2000/svg" xmlns:xlink="http://www.w3.org/1999/xlink" width="400" height="400" viewBox="0, 0, 400,400"><g id="svgg"><path id="path0" d="M176.400 0.932 C 11.400 19.557,-59.381 223.873,58.373 341.627 C 171.126 454.379,365.106 395.828,396.390 239.600 C 423.135 106.045,312.126 -14.389,176.400 0.932 M211.330 58.727 C 262.166 68.489,280.790 131.228,243.338 166.558 C 206.927 200.907,147.369 181.499,137.939 132.212 C 129.729 89.303,168.482 50.500,211.330 58.727 M231.200 242.792 C 277.840 249.216,314.140 268.710,324.102 292.683 C 326.435 298.296,325.976 299.322,316.784 309.021 C 252.523 376.833,147.880 377.040,83.644 309.482 C 73.981 299.320,74.193 299.741,76.072 294.380 C 88.842 257.963,162.795 233.369,231.200 242.792 " stroke="none" fill="#000000" fill-rule="evenodd"></path></g></svg>