<svg id="svg" xmlns="http://www.w3.org/2000/svg" xmlns:xlink="http://www.w3.org/1999/xlink" width="400" height="400" viewBox="0, 0, 400,400"><g id="svgg"><path id="path0" d="M64.833 61.151 C 42.797 83.605,40.051 77.936,104.002 142.002 L 160.004 198.104 104.002 253.998 C 40.109 317.769,42.740 312.338,64.833 334.849 C 87.072 357.509,82.356 359.766,146.002 295.998 L 201.896 239.996 257.998 295.998 C 321.937 359.823,316.983 357.452,339.167 334.849 C 361.260 312.338,363.891 317.769,299.998 253.998 L 243.996 198.104 299.998 142.002 C 363.823 78.063,361.452 83.017,338.849 60.833 C 316.338 38.740,321.769 36.109,257.998 100.002 L 202.104 156.004 146.002 100.002 C 82.063 36.177,87.017 38.548,64.833 61.151 " stroke="none" fill="#000000" fill-rule="evenodd"></path></g></svg>